<svg width="24" height="24" viewBox="0 0 24 24" fill="none" xmlns="http://www.w3.org/2000/svg">
<path d="M11.55 17.8237L11.552 17.8337M11.55 12.66L11.552 12.67M11.55 15.2699L11.552 15.2799M15.1763 17.8237L15.1782 17.8337M15.1763 12.66L15.1782 12.67M15.1763 15.2699L15.1782 15.2799M3.79407 20.64H20.1503M18.8018 20.6382V11.107C18.8018 10.0572 17.9509 9.20623 16.901 9.20623H9.84327C8.79343 9.20623 7.94251 10.0572 7.94251 11.107V20.6382M10.5749 6.40499L10.5758 6.41458M7.87125 6.40499L7.87219 6.41458M5.14031 20.6372V5.26172C5.14031 4.20998 5.99124 3.35999 7.04299 3.35999H11.4704C12.5221 3.35999 13.3731 4.20998 13.3731 5.26172V9.20529" stroke="white" stroke-width="1.44" stroke-linecap="round" stroke-linejoin="round"/>
</svg>
